# xmcd CD database file
#
# Track frame offsets:
#	150
#	16329
#	31505
#	44354
#	60256
#	77399
#	94892
#	112609
#	126200
#	138611
#
# Disc length: 2058 seconds
#
# Revision: 2
# Processed by: cddbd v1.5.2PL0 Copyright (c) Steve Scherf et al.
# Submitted via: CDex 1.51
#
DISCID=6c08080a
DTITLE=Mark Merritt - Better left unsaid
DYEAR=2003
DGENRE=Country
TTITLE0=The Still
TTITLE1=For everything you do
TTITLE2=She deserves better
TTITLE3=She needs a love
TTITLE4=Cowboy
TTITLE5=My turn
TTITLE6=It snowed on Easter sunday
TTITLE7=Nothing but the radio on
TTITLE8=Standing on the moon
TTITLE9=Better left unsaid
EXTD=YEAR: 2003
EXTT0=
EXTT1=
EXTT2=
EXTT3=
EXTT4=
EXTT5=
EXTT6=
EXTT7=
EXTT8=
EXTT9=
PLAYORDER=
